<svg xmlns="http://www.w3.org/2000/svg" viewBox="0 0 500 300" width="500" height="300">

  <!-- Tail -->
  <path fill="#1B2A4A" d="
    M 78,128
    C 68,118 52,105 42,90
    C 35,78 38,65 48,62
    C 56,60 62,68 60,78
    C 58,86 52,90 52,100
    C 52,110 58,118 65,124
    Z
  "/>

  <!-- Main body + neck + head silhouette (flat at belly, no legs) -->
  <path fill="#1B2A4A" d="
    M 78,128
    C 78,122 79,116 82,112

    C 100,104 130,98 168,94
    C 198,91 220,89 242,88
    C 258,87 272,88 282,92

    C 290,85 302,77 316,70
    C 328,63 342,60 356,62
    C 370,64 382,72 392,84
    C 402,96 408,110 408,124
    C 408,136 404,148 396,156
    C 388,164 376,168 362,168
    C 348,168 336,164 326,158
    C 314,154 304,152 294,156
    C 282,160 272,168 264,178
    C 258,186 254,192 252,197

    L 235,197
    C 234,192 232,186 228,180
    C 220,168 208,164 192,162
    C 175,160 148,160 118,162
    C 98,163 83,165 73,168
    C 68,170 65,173 64,177

    L 47,177
    C 48,172 50,166 54,160
    C 62,148 72,140 76,130
    C 77,129 78,128 78,128
    Z
  "/>

  <!-- Ear -->
  <ellipse fill="#1B2A4A" cx="356" cy="56" rx="12" ry="8" transform="rotate(-20 356 56)"/>

  <!-- Front right leg -->
  <path fill="#1B2A4A" d="
    M 240,197 L 256,197
    C 258,210 260,228 260,248
    C 260,256 256,260 250,260
    C 244,260 240,256 240,248
    C 240,228 240,210 240,197 Z
  "/>

  <!-- Front left leg (slightly back) -->
  <path fill="#1B2A4A" d="
    M 218,197 L 233,197
    C 234,208 235,224 235,242
    C 235,250 231,254 225,254
    C 219,254 216,250 216,242
    C 216,224 217,208 218,197 Z
  "/>

  <!-- Rear right leg -->
  <path fill="#1B2A4A" d="
    M 55,177 L 70,177
    C 71,190 72,208 72,230
    C 72,238 68,242 62,242
    C 56,242 52,238 52,230
    C 52,208 53,190 55,177 Z
  "/>

  <!-- Rear left leg (slightly forward) -->
  <path fill="#1B2A4A" d="
    M 73,177 L 88,177
    C 89,190 90,206 90,226
    C 90,234 86,238 80,238
    C 74,238 71,234 71,226
    C 71,206 72,190 73,177 Z
  "/>

  <!-- Nostril detail -->
  <ellipse fill="#FFFFFF" cx="405" cy="128" rx="5" ry="4" opacity="0.6"/>

  <!-- Eye -->
  <circle fill="#FFFFFF" cx="378" cy="90" r="4" opacity="0.7"/>

</svg>
